<svg xmlns:xlink="http://www.w3.org/1999/xlink" xmlns="http://www.w3.org/2000/svg" width="25" height="24" viewBox="0 0 25 24" fill="none">
<g clip-path="url(#clip0_2_6207)">
<circle cx="11.7051" cy="12" r="11" fill="#00A082"/>
<circle cx="11.9551" cy="12.25" r="8.25" fill="white"/>
<path d="M12.7051 7.5C12.7051 8.05228 12.2574 8.5 11.7051 8.5C11.1528 8.5 10.7051 8.05228 10.7051 7.5C10.7051 6.94772 11.1528 6.5 11.7051 6.5C12.2574 6.5 12.7051 6.94772 12.7051 7.5Z" fill="#292929"/>
<path d="M11.7051 10C11.2909 10 10.9551 10.3358 10.9551 10.75V16.75C10.9551 17.1642 11.2909 17.5 11.7051 17.5C12.1193 17.5 12.4551 17.1642 12.4551 16.75V10.75C12.4551 10.3358 12.1193 10 11.7051 10Z" fill="#292929"/>
<path fill-rule="evenodd" clip-rule="evenodd" d="M11.7051 21C16.6756 21 20.7051 16.9706 20.7051 12C20.7051 7.02944 16.6756 3 11.7051 3C6.73452 3 2.70508 7.02944 2.70508 12C2.70508 16.9706 6.73452 21 11.7051 21ZM11.7051 19.5C15.8472 19.5 19.2051 16.1421 19.2051 12C19.2051 7.85786 15.8472 4.5 11.7051 4.5C7.56294 4.5 4.20508 7.85786 4.20508 12C4.20508 16.1421 7.56294 19.5 11.7051 19.5Z" fill="#292929"/>
</g>
<defs>
<clipPath id="clip0_2_6207">
<rect width="24" height="24" fill="white" transform="translate(0.0351562)"/>
</clipPath>
</defs>
</svg>