<svg xmlns:xlink="http://www.w3.org/1999/xlink" xmlns="http://www.w3.org/2000/svg" width="16" height="16" viewBox="0 0 16 16" fill="none">
<path d="M2.75 5.90987C2.75 3.06222 5.10674 0.75 8 0.75C10.8933 0.75 13.25 3.06222 13.25 5.90987C13.25 7.00711 13.0006 8.17277 12.5126 9.37332C12.1341 10.3066 11.6085 11.2666 10.9496 12.232C10.463 12.944 9.94474 13.6007 9.42687 14.188C9.10546 14.5525 8.81814 14.8506 8.69069 14.9706C8.5035 15.1519 8.25577 15.25 8 15.25C7.7427 15.25 7.49286 15.1513 7.31067 14.9725C7.1689 14.8371 6.89247 14.5495 6.57207 14.1853C6.05419 13.5967 5.53611 12.9391 5.04959 12.2264C4.39167 11.2619 3.86586 10.3013 3.48684 9.36872C2.9992 8.16746 2.75 7.00373 2.75 5.90987Z" stroke="white"/>
<mask id="mask0_905_23030" style="mask-type:alpha" maskUnits="userSpaceOnUse" x="2" y="0" width="12" height="16">
<path d="M2.75 5.90987C2.75 3.06222 5.10674 0.75 8 0.75C10.8933 0.75 13.25 3.06222 13.25 5.90987C13.25 7.00711 13.0006 8.17277 12.5126 9.37332C12.1341 10.3066 11.6085 11.2666 10.9496 12.232C10.463 12.944 9.94474 13.6007 9.42687 14.188C9.10546 14.5525 8.81814 14.8506 8.69069 14.9706C8.5035 15.1519 8.25577 15.25 8 15.25C7.7427 15.25 7.49286 15.1513 7.31067 14.9725C7.1689 14.8371 6.89247 14.5495 6.57207 14.1853C6.05419 13.5967 5.53611 12.9391 5.04959 12.2264C4.39167 11.2619 3.86586 10.3013 3.48684 9.36872C2.9992 8.16746 2.75 7.00373 2.75 5.90987Z" fill="white" stroke="white"/>
</mask>
<g mask="url(#mask0_905_23030)">
<ellipse cx="8" cy="6.08887" rx="2.5" ry="2.5" stroke="white"/>
</g>
</svg>